<svg width="568" height="568" viewBox="0 0 568 568" fill="none" xmlns="http://www.w3.org/2000/svg">
<path d="M23.0007 1.49999C12.5007 4.99999 3.00066 15.6 0.800658 26.3C-3.49934 46.9 17.1007 67.5 37.7007 63.2C53.2007 60 65.2007 44.2 63.7007 29.3C62.6007 18.8 54.7007 7.99999 44.7007 3.09999C38.6007 0.199987 29.2007 -0.500011 23.0007 1.49999ZM151.001 1.49999C135.901 6.49999 125.701 23.1 128.801 37.7C131.301 49.6 142.401 60.7 154.201 63.2C173.601 67.3 193.701 49 191.701 29.3C190.601 18.8 182.701 7.99999 172.701 3.09999C166.601 0.199987 157.201 -0.500011 151.001 1.49999ZM279.001 1.49999C268.501 4.99999 259.001 15.6 256.801 26.3C252.501 46.9 273.101 67.5 293.701 63.2C309.201 60 321.201 44.2 319.701 29.3C318.601 18.8 310.701 7.99999 300.701 3.09999C294.601 0.199987 285.201 -0.500011 279.001 1.49999ZM407.001 1.49999C396.501 4.99999 387.001 15.6 384.801 26.3C380.501 46.9 401.101 67.5 421.701 63.2C437.201 60 449.201 44.2 447.701 29.3C446.601 18.8 438.701 7.99999 428.701 3.09999C422.601 0.199987 413.201 -0.500011 407.001 1.49999ZM535.001 1.49999C524.501 4.99999 515.001 15.6 512.801 26.3C508.501 46.9 529.101 67.5 549.701 63.2C565.201 60 577.201 44.2 575.701 29.3C574.601 18.8 566.701 7.99999 556.701 3.09999C550.601 0.199987 541.201 -0.500011 535.001 1.49999ZM663.001 1.49999C652.501 4.99999 643.001 15.6 640.801 26.3C636.501 46.9 657.101 67.5 677.701 63.2C693.201 60 705.201 44.2 703.701 29.3C702.601 18.8 694.701 7.99999 684.701 3.09999C678.601 0.199987 669.201 -0.500011 663.001 1.49999ZM791.001 1.49999C780.501 4.99999 771.001 15.6 768.801 26.3C764.501 46.9 785.101 67.5 805.701 63.2C821.201 60 833.201 44.2 831.701 29.3C830.601 18.8 822.701 7.99999 812.701 3.09999C806.601 0.199987 797.201 -0.500011 791.001 1.49999ZM919.001 1.49999C908.501 4.99999 899.001 15.6 896.801 26.3C892.501 46.9 913.101 67.5 933.701 63.2C949.201 60 961.201 44.2 959.701 29.3C958.601 18.8 950.701 7.99999 940.701 3.09999C934.601 0.199987 925.201 -0.500011 919.001 1.49999ZM1047 1.49999C1036.5 4.99999 1027 15.6 1024.8 26.3C1022.3 38 1028 50.7 1039 58.2C1049.7 65.6 1061.9 65.7 1072.7 58.5C1090.4 46.7 1092.8 24.7 1078 9.99999C1069.5 1.39999 1057.3 -1.90001 1047 1.49999ZM1175 1.49999C1164.5 4.99999 1155 15.6 1152.8 26.3C1150.3 38 1156 50.7 1167 58.2C1177.7 65.6 1189.9 65.7 1200.7 58.5C1218.4 46.7 1220.8 24.7 1206 9.99999C1197.5 1.39999 1185.3 -1.90001 1175 1.49999ZM23.0007 129.5C12.5007 133 3.00066 143.6 0.800658 154.3C-3.49934 174.9 17.1007 195.5 37.7007 191.2C53.2007 188 65.2007 172.2 63.7007 157.3C62.6007 146.8 54.7007 136 44.7007 131.1C38.6007 128.2 29.2007 127.5 23.0007 129.5ZM151.001 129.5C135.901 134.5 125.701 151.1 128.801 165.7C131.301 177.6 142.401 188.7 154.201 191.2C173.601 195.3 193.701 177 191.701 157.3C190.601 146.8 182.701 136 172.701 131.1C166.601 128.2 157.201 127.5 151.001 129.5ZM279.001 129.5C268.501 133 259.001 143.6 256.801 154.3C252.501 174.9 273.101 195.5 293.701 191.2C309.201 188 321.201 172.2 319.701 157.3C318.601 146.8 310.701 136 300.701 131.1C294.601 128.2 285.201 127.5 279.001 129.5ZM407.001 129.5C396.501 133 387.001 143.6 384.801 154.3C380.501 174.9 401.101 195.5 421.701 191.2C437.201 188 449.201 172.2 447.701 157.3C446.601 146.8 438.701 136 428.701 131.1C422.601 128.2 413.201 127.5 407.001 129.5ZM535.001 129.5C524.501 133 515.001 143.6 512.801 154.3C508.501 174.9 529.101 195.5 549.701 191.2C565.201 188 577.201 172.2 575.701 157.3C574.601 146.8 566.701 136 556.701 131.1C550.601 128.2 541.201 127.5 535.001 129.5ZM663.001 129.5C652.501 133 643.001 143.6 640.801 154.3C636.501 174.9 657.101 195.5 677.701 191.2C693.201 188 705.201 172.2 703.701 157.3C702.601 146.8 694.701 136 684.701 131.1C678.601 128.2 669.201 127.5 663.001 129.5ZM791.001 129.5C780.501 133 771.001 143.6 768.801 154.3C764.501 174.9 785.101 195.5 805.701 191.2C821.201 188 833.201 172.2 831.701 157.3C830.601 146.8 822.701 136 812.701 131.1C806.601 128.2 797.201 127.5 791.001 129.5ZM919.001 129.5C908.501 133 899.001 143.6 896.801 154.3C892.501 174.9 913.101 195.5 933.701 191.2C949.201 188 961.201 172.2 959.701 157.3C958.601 146.8 950.701 136 940.701 131.1C934.601 128.2 925.201 127.5 919.001 129.5ZM1047 129.5C1036.5 133 1027 143.6 1024.8 154.3C1022.3 166 1028 178.7 1039 186.2C1049.7 193.6 1061.9 193.7 1072.7 186.5C1090.4 174.7 1092.8 152.7 1078 138C1069.5 129.4 1057.3 126.1 1047 129.5ZM1175 129.5C1164.5 133 1155 143.6 1152.8 154.3C1150.3 166 1156 178.7 1167 186.2C1177.7 193.6 1189.9 193.7 1200.7 186.5C1218.4 174.7 1220.8 152.7 1206 138C1197.5 129.4 1185.3 126.1 1175 129.5ZM23.0007 257.5C12.5007 261 3.00066 271.6 0.800658 282.3C-3.49934 302.9 17.1007 323.5 37.7007 319.2C53.2007 316 65.2007 300.2 63.7007 285.3C62.6007 274.8 54.7007 264 44.7007 259.1C38.6007 256.2 29.2007 255.5 23.0007 257.5ZM151.001 257.5C140.501 261 131.001 271.6 128.801 282.3C124.501 302.9 145.101 323.5 165.701 319.2C181.201 316 193.201 300.2 191.701 285.3C190.601 274.8 182.701 264 172.701 259.1C166.601 256.2 157.201 255.5 151.001 257.5ZM279.001 257.5C268.501 261 259.001 271.6 256.801 282.3C252.501 302.9 273.101 323.5 293.701 319.2C309.201 316 321.201 300.2 319.701 285.3C318.601 274.8 310.701 264 300.701 259.1C294.601 256.2 285.201 255.5 279.001 257.5ZM407.001 257.5C396.501 261 387.001 271.6 384.801 282.3C380.501 302.9 401.101 323.5 421.701 319.2C437.201 316 449.201 300.2 447.701 285.3C446.601 274.8 438.701 264 428.701 259.1C422.601 256.2 413.201 255.5 407.001 257.5ZM535.001 257.5C524.501 261 515.001 271.6 512.801 282.3C508.501 302.9 529.101 323.5 549.701 319.2C565.201 316 577.201 300.2 575.701 285.3C574.601 274.8 566.701 264 556.701 259.1C550.601 256.2 541.201 255.5 535.001 257.5ZM663.001 257.5C652.501 261 643.001 271.6 640.801 282.3C636.501 302.9 657.101 323.5 677.701 319.2C693.201 316 705.201 300.2 703.701 285.3C702.601 274.8 694.701 264 684.701 259.1C678.601 256.2 669.201 255.5 663.001 257.5ZM791.001 257.5C780.501 261 771.001 271.6 768.801 282.3C764.501 302.9 785.101 323.5 805.701 319.2C821.201 316 833.201 300.2 831.701 285.3C830.601 274.8 822.701 264 812.701 259.1C806.601 256.2 797.201 255.5 791.001 257.5ZM919.001 257.5C908.501 261 899.001 271.6 896.801 282.3C892.501 302.9 913.101 323.5 933.701 319.2C949.201 316 961.201 300.2 959.701 285.3C958.601 274.8 950.701 264 940.701 259.1C934.601 256.2 925.201 255.5 919.001 257.5ZM1047 257.5C1036.5 261 1027 271.6 1024.8 282.3C1020.5 302.9 1041.1 323.5 1061.7 319.2C1077.2 316 1089.2 300.2 1087.7 285.3C1086.6 274.8 1078.7 264 1068.7 259.1C1062.6 256.2 1053.2 255.5 1047 257.5ZM1175 257.5C1164.5 261 1155 271.6 1152.8 282.3C1148.5 302.9 1169.1 323.5 1189.7 319.2C1205.2 316 1217.2 300.2 1215.7 285.3C1214.6 274.8 1206.7 264 1196.7 259.1C1190.6 256.2 1181.2 255.5 1175 257.5ZM23.0007 385.5C12.5007 389 3.00066 399.6 0.800658 410.3C-3.49934 430.9 17.1007 451.5 37.7007 447.2C53.2007 444 65.2007 428.2 63.7007 413.3C62.6007 402.8 54.7007 392 44.7007 387.1C38.6007 384.2 29.2007 383.5 23.0007 385.5ZM151.001 385.5C140.501 389 131.001 399.6 128.801 410.3C124.501 430.9 145.101 451.5 165.701 447.2C181.201 444 193.201 428.2 191.701 413.3C190.601 402.8 182.701 392 172.701 387.1C166.601 384.2 157.201 383.5 151.001 385.5ZM279.001 385.5C268.501 389 259.001 399.6 256.801 410.3C252.501 430.9 273.101 451.5 293.701 447.2C309.201 444 321.201 428.2 319.701 413.3C318.601 402.8 310.701 392 300.701 387.1C294.601 384.2 285.201 383.5 279.001 385.5ZM407.001 385.5C396.501 389 387.001 399.6 384.801 410.3C380.501 430.9 401.101 451.5 421.701 447.2C437.201 444 449.201 428.2 447.701 413.3C446.601 402.8 438.701 392 428.701 387.1C422.601 384.2 413.201 383.5 407.001 385.5ZM535.001 385.5C524.501 389 515.001 399.6 512.801 410.3C508.501 430.9 529.101 451.5 549.701 447.2C565.201 444 577.201 428.2 575.701 413.3C574.601 402.8 566.701 392 556.701 387.1C550.601 384.2 541.201 383.5 535.001 385.5ZM663.001 385.5C652.501 389 643.001 399.6 640.801 410.3C636.501 430.9 657.101 451.5 677.701 447.2C693.201 444 705.201 428.2 703.701 413.3C702.601 402.8 694.701 392 684.701 387.1C678.601 384.2 669.201 383.5 663.001 385.5ZM791.001 385.5C780.501 389 771.001 399.6 768.801 410.3C764.501 430.9 785.101 451.5 805.701 447.2C821.201 444 833.201 428.2 831.701 413.3C830.601 402.8 822.701 392 812.701 387.1C806.601 384.2 797.201 383.5 791.001 385.5ZM919.001 385.5C908.501 389 899.001 399.6 896.801 410.3C892.501 430.9 913.101 451.5 933.701 447.2C949.201 444 961.201 428.2 959.701 413.3C958.601 402.8 950.701 392 940.701 387.1C934.601 384.2 925.201 383.5 919.001 385.5ZM1047 385.5C1036.5 389 1027 399.6 1024.8 410.3C1020.5 430.9 1041.1 451.5 1061.7 447.2C1077.2 444 1089.2 428.2 1087.7 413.3C1086.6 402.8 1078.7 392 1068.7 387.1C1062.6 384.2 1053.2 383.5 1047 385.5ZM1175 385.5C1164.5 389 1155 399.6 1152.8 410.3C1148.5 430.9 1169.1 451.5 1189.7 447.2C1205.2 444 1217.2 428.2 1215.7 413.3C1214.6 402.8 1206.7 392 1196.7 387.1C1190.6 384.2 1181.2 383.5 1175 385.5ZM23.0007 513.5C12.5007 517 3.00066 527.6 0.800658 538.3C-3.49934 558.9 17.1007 579.5 37.7007 575.2C53.2007 572 65.2007 556.2 63.7007 541.3C62.6007 530.8 54.7007 520 44.7007 515.1C38.6007 512.2 29.2007 511.5 23.0007 513.5ZM151.001 513.5C140.501 517 131.001 527.6 128.801 538.3C124.501 558.9 145.101 579.5 165.701 575.2C181.201 572 193.201 556.2 191.701 541.3C190.601 530.8 182.701 520 172.701 515.1C166.601 512.2 157.201 511.5 151.001 513.5ZM279.001 513.5C268.501 517 259.001 527.6 256.801 538.3C252.501 558.9 273.101 579.5 293.701 575.2C309.201 572 321.201 556.2 319.701 541.3C318.601 530.8 310.701 520 300.701 515.1C294.601 512.2 285.201 511.5 279.001 513.5ZM407.001 513.5C396.501 517 387.001 527.6 384.801 538.3C380.501 558.9 401.101 579.5 421.701 575.2C437.201 572 449.201 556.2 447.701 541.3C446.601 530.8 438.701 520 428.701 515.1C422.601 512.2 413.201 511.5 407.001 513.5ZM535.001 513.5C524.501 517 515.001 527.6 512.801 538.3C508.501 558.9 529.101 579.5 549.701 575.2C565.201 572 577.201 556.2 575.701 541.3C574.601 530.8 566.701 520 556.701 515.1C550.601 512.2 541.201 511.5 535.001 513.5ZM663.001 513.5C652.501 517 643.001 527.6 640.801 538.3C636.501 558.9 657.101 579.5 677.701 575.2C693.201 572 705.201 556.2 703.701 541.3C702.601 530.8 694.701 520 684.701 515.1C678.601 512.2 669.201 511.5 663.001 513.5ZM791.001 513.5C780.501 517 771.001 527.6 768.801 538.3C764.501 558.9 785.101 579.5 805.701 575.2C821.201 572 833.201 556.2 831.701 541.3C830.601 530.8 822.701 520 812.701 515.1C806.601 512.2 797.201 511.5 791.001 513.5ZM919.001 513.5C908.501 517 899.001 527.6 896.801 538.3C892.501 558.9 913.101 579.5 933.701 575.2C949.201 572 961.201 556.2 959.701 541.3C958.601 530.8 950.701 520 940.701 515.1C934.601 512.2 925.201 511.5 919.001 513.5ZM1047 513.5C1036.5 517 1027 527.6 1024.8 538.3C1020.5 558.9 1041.1 579.5 1061.7 575.2C1077.2 572 1089.2 556.2 1087.7 541.3C1086.6 530.8 1078.7 520 1068.7 515.1C1062.6 512.2 1053.2 511.5 1047 513.5ZM1175 513.5C1164.5 517 1155 527.6 1152.8 538.3C1148.5 558.9 1169.1 579.5 1189.7 575.2C1205.2 572 1217.2 556.2 1215.7 541.3C1214.6 530.8 1206.7 520 1196.7 515.1C1190.6 512.2 1181.2 511.5 1175 513.5ZM23.0007 641.5C12.5007 645 3.00066 655.6 0.800658 666.3C-3.49934 686.9 17.1007 707.5 37.7007 703.2C53.2007 700 65.2007 684.2 63.7007 669.3C62.6007 658.8 54.7007 648 44.7007 643.1C38.6007 640.2 29.2007 639.5 23.0007 641.5ZM151.001 641.5C140.501 645 131.001 655.6 128.801 666.3C124.501 686.9 145.101 707.5 165.701 703.2C181.201 700 193.201 684.2 191.701 669.3C190.601 658.8 182.701 648 172.701 643.1C166.601 640.2 157.201 639.5 151.001 641.5ZM279.001 641.5C268.501 645 259.001 655.6 256.801 666.3C252.501 686.9 273.101 707.5 293.701 703.2C309.201 700 321.201 684.2 319.701 669.3C318.601 658.8 310.701 648 300.701 643.1C294.601 640.2 285.201 639.5 279.001 641.5ZM407.001 641.5C396.501 645 387.001 655.6 384.801 666.3C380.501 686.9 401.101 707.5 421.701 703.2C437.201 700 449.201 684.2 447.701 669.3C446.601 658.8 438.701 648 428.701 643.1C422.601 640.2 413.201 639.5 407.001 641.5ZM535.001 641.5C524.501 645 515.001 655.6 512.801 666.3C508.501 686.9 529.101 707.5 549.701 703.2C565.201 700 577.201 684.2 575.701 669.3C574.601 658.8 566.701 648 556.701 643.1C550.601 640.2 541.201 639.5 535.001 641.5ZM663.001 641.5C652.501 645 643.001 655.6 640.801 666.3C636.501 686.9 657.101 707.5 677.701 703.2C693.201 700 705.201 684.2 703.701 669.3C702.601 658.8 694.701 648 684.701 643.1C678.601 640.2 669.201 639.5 663.001 641.5ZM791.001 641.5C780.501 645 771.001 655.6 768.801 666.3C764.501 686.9 785.101 707.5 805.701 703.2C821.201 700 833.201 684.2 831.701 669.3C830.601 658.8 822.701 648 812.701 643.1C806.601 640.2 797.201 639.5 791.001 641.5ZM919.001 641.5C908.501 645 899.001 655.6 896.801 666.3C892.501 686.9 913.101 707.5 933.701 703.2C949.201 700 961.201 684.2 959.701 669.3C958.601 658.8 950.701 648 940.701 643.1C934.601 640.2 925.201 639.5 919.001 641.5ZM1047 641.5C1036.5 645 1027 655.6 1024.8 666.3C1020.5 686.9 1041.1 707.5 1061.7 703.2C1077.2 700 1089.2 684.2 1087.7 669.3C1086.6 658.8 1078.7 648 1068.7 643.1C1062.6 640.2 1053.2 639.5 1047 641.5ZM1175 641.5C1164.5 645 1155 655.6 1152.8 666.3C1148.5 686.9 1169.1 707.5 1189.7 703.2C1205.2 700 1217.2 684.2 1215.7 669.3C1214.6 658.8 1206.7 648 1196.7 643.1C1190.6 640.2 1181.2 639.5 1175 641.5ZM23.0007 769.5C12.5007 773 3.00066 783.6 0.800658 794.3C-3.49934 814.9 17.1007 835.5 37.7007 831.2C53.2007 828 65.2007 812.2 63.7007 797.3C62.6007 786.8 54.7007 776 44.7007 771.1C38.6007 768.2 29.2007 767.5 23.0007 769.5ZM151.001 769.5C140.501 773 131.001 783.6 128.801 794.3C124.501 814.9 145.101 835.5 165.701 831.2C181.201 828 193.201 812.2 191.701 797.3C190.601 786.8 182.701 776 172.701 771.1C166.601 768.2 157.201 767.5 151.001 769.5ZM279.001 769.5C268.501 773 259.001 783.6 256.801 794.3C254.301 806 260.001 818.7 271.001 826.2C281.701 833.6 293.901 833.7 304.701 826.5C322.401 814.7 324.801 792.7 310.001 778C301.501 769.4 289.301 766.1 279.001 769.5ZM407.001 769.5C396.501 773 387.001 783.6 384.801 794.3C382.301 806 388.001 818.7 399.001 826.2C409.701 833.6 421.901 833.7 432.701 826.5C450.401 814.7 452.801 792.7 438.001 778C429.501 769.4 417.301 766.1 407.001 769.5ZM535.001 769.5C519.901 774.5 509.701 791.1 512.801 805.7C515.301 817.6 526.401 828.7 538.301 831.2C557.601 835.3 577.701 817 575.701 797.3C574.601 786.8 566.701 776 556.701 771.1C550.601 768.2 541.201 767.5 535.001 769.5ZM663.001 769.5C647.901 774.5 637.701 791.1 640.801 805.7C643.301 817.6 654.401 828.7 666.301 831.2C685.601 835.3 705.701 817 703.701 797.3C702.601 786.8 694.701 776 684.701 771.1C678.601 768.2 669.201 767.5 663.001 769.5ZM791.001 769.5C775.901 774.5 765.701 791.1 768.801 805.7C771.301 817.6 782.401 828.7 794.301 831.2C813.601 835.3 833.701 817 831.701 797.3C830.601 786.8 822.701 776 812.701 771.1C806.601 768.2 797.201 767.5 791.001 769.5ZM919.001 769.5C903.901 774.5 893.701 791.1 896.801 805.7C899.301 817.6 910.401 828.7 922.301 831.2C941.601 835.3 961.701 817 959.701 797.3C958.601 786.8 950.701 776 940.701 771.1C934.601 768.2 925.201 767.5 919.001 769.5ZM1047 769.5C1036.5 773 1027 783.6 1024.8 794.3C1020.5 814.9 1041.1 835.5 1061.7 831.2C1077.2 828 1089.2 812.2 1087.7 797.3C1086.6 786.8 1078.7 776 1068.7 771.1C1062.6 768.2 1053.2 767.5 1047 769.5ZM1175 769.5C1164.5 773 1155 783.6 1152.8 794.3C1148.5 814.9 1169.1 835.5 1189.7 831.2C1205.2 828 1217.2 812.2 1215.7 797.3C1214.6 786.8 1206.7 776 1196.7 771.1C1190.6 768.2 1181.2 767.5 1175 769.5ZM23.0007 897.5C12.5007 901 3.00066 911.6 0.800658 922.3C-3.49934 942.9 17.1007 963.5 37.7007 959.2C53.2007 956 65.2007 940.2 63.7007 925.3C62.6007 914.8 54.7007 904 44.7007 899.1C38.6007 896.2 29.2007 895.5 23.0007 897.5ZM151.001 897.5C140.501 901 131.001 911.6 128.801 922.3C124.501 942.9 145.101 963.5 165.701 959.2C181.201 956 193.201 940.2 191.701 925.3C190.601 914.8 182.701 904 172.701 899.1C166.601 896.2 157.201 895.5 151.001 897.5ZM279.001 897.5C268.501 901 259.001 911.6 256.801 922.3C254.301 934 260.001 946.7 271.001 954.2C281.701 961.6 293.901 961.7 304.701 954.5C322.401 942.7 324.801 920.7 310.001 906C301.501 897.4 289.301 894.1 279.001 897.5ZM407.001 897.5C396.501 901 387.001 911.6 384.801 922.3C382.301 934 388.001 946.7 399.001 954.2C409.701 961.6 421.901 961.7 432.701 954.5C450.401 942.7 452.801 920.7 438.001 906C429.501 897.4 417.301 894.1 407.001 897.5ZM535.001 897.5C519.901 902.5 509.701 919.1 512.801 933.7C515.301 945.6 526.401 956.7 538.301 959.2C557.601 963.3 577.701 945 575.701 925.3C574.601 914.8 566.701 904 556.701 899.1C550.601 896.2 541.201 895.5 535.001 897.5ZM663.001 897.5C647.901 902.5 637.701 919.1 640.801 933.7C643.301 945.6 654.401 956.7 666.301 959.2C685.601 963.3 705.701 945 703.701 925.3C702.601 914.8 694.701 904 684.701 899.1C678.601 896.2 669.201 895.5 663.001 897.5ZM791.001 897.5C775.901 902.5 765.701 919.1 768.801 933.7C771.301 945.6 782.401 956.7 794.301 959.2C813.601 963.3 833.701 945 831.701 925.3C830.601 914.8 822.701 904 812.701 899.1C806.601 896.2 797.201 895.5 791.001 897.5ZM919.001 897.5C903.901 902.5 893.701 919.1 896.801 933.7C899.301 945.6 910.401 956.7 922.301 959.2C941.601 963.3 961.701 945 959.701 925.3C958.601 914.8 950.701 904 940.701 899.1C934.601 896.2 925.201 895.5 919.001 897.5ZM1047 897.5C1036.5 901 1027 911.6 1024.8 922.3C1020.5 942.9 1041.1 963.5 1061.7 959.2C1077.2 956 1089.2 940.2 1087.7 925.3C1086.6 914.8 1078.7 904 1068.7 899.1C1062.6 896.2 1053.2 895.5 1047 897.5ZM1175 897.5C1164.5 901 1155 911.6 1152.8 922.3C1148.5 942.9 1169.1 963.5 1189.7 959.2C1205.2 956 1217.2 940.2 1215.7 925.3C1214.6 914.8 1206.7 904 1196.7 899.1C1190.6 896.2 1181.2 895.5 1175 897.5ZM23.0007 1025.5C12.5007 1029 3.00066 1039.6 0.800658 1050.3C-3.49934 1070.9 17.1007 1091.5 37.7007 1087.2C53.2007 1084 65.2007 1068.2 63.7007 1053.3C62.6007 1042.8 54.7007 1032 44.7007 1027.1C38.6007 1024.2 29.2007 1023.5 23.0007 1025.5ZM151.001 1025.5C140.501 1029 131.001 1039.6 128.801 1050.3C124.501 1070.9 145.101 1091.5 165.701 1087.2C181.201 1084 193.201 1068.2 191.701 1053.3C190.601 1042.8 182.701 1032 172.701 1027.1C166.601 1024.2 157.201 1023.5 151.001 1025.5ZM279.001 1025.5C268.501 1029 259.001 1039.6 256.801 1050.3C254.301 1062 260.001 1074.7 271.001 1082.2C281.701 1089.6 293.901 1089.7 304.701 1082.5C322.401 1070.7 324.801 1048.7 310.001 1034C301.501 1025.4 289.301 1022.1 279.001 1025.5ZM407.001 1025.5C396.501 1029 387.001 1039.6 384.801 1050.3C382.301 1062 388.001 1074.7 399.001 1082.2C409.701 1089.6 421.901 1089.7 432.701 1082.5C450.401 1070.7 452.801 1048.7 438.001 1034C429.501 1025.4 417.301 1022.1 407.001 1025.5ZM535.001 1025.5C524.501 1029 515.001 1039.6 512.801 1050.3C508.501 1070.9 529.101 1091.5 549.701 1087.2C565.201 1084 577.201 1068.2 575.701 1053.3C574.601 1042.8 566.701 1032 556.701 1027.1C550.601 1024.2 541.201 1023.5 535.001 1025.5ZM663.001 1025.5C652.501 1029 643.001 1039.6 640.801 1050.3C636.501 1070.9 657.101 1091.5 677.701 1087.2C693.201 1084 705.201 1068.2 703.701 1053.3C702.601 1042.8 694.701 1032 684.701 1027.1C678.601 1024.2 669.201 1023.5 663.001 1025.5ZM791.001 1025.5C780.501 1029 771.001 1039.6 768.801 1050.3C764.501 1070.9 785.101 1091.5 805.701 1087.2C821.201 1084 833.201 1068.2 831.701 1053.3C830.601 1042.8 822.701 1032 812.701 1027.1C806.601 1024.2 797.201 1023.5 791.001 1025.5ZM919.001 1025.5C908.501 1029 899.001 1039.6 896.801 1050.3C892.501 1070.9 913.101 1091.5 933.701 1087.2C949.201 1084 961.201 1068.2 959.701 1053.3C958.601 1042.8 950.701 1032 940.701 1027.1C934.601 1024.2 925.201 1023.5 919.001 1025.5ZM1047 1025.5C1036.5 1029 1027 1039.6 1024.8 1050.3C1020.5 1070.9 1041.1 1091.5 1061.7 1087.2C1077.2 1084 1089.2 1068.2 1087.7 1053.3C1086.6 1042.8 1078.7 1032 1068.7 1027.1C1062.6 1024.2 1053.2 1023.5 1047 1025.5ZM1175 1025.5C1164.5 1029 1155 1039.6 1152.8 1050.3C1148.5 1070.9 1169.1 1091.5 1189.7 1087.2C1205.2 1084 1217.2 1068.2 1215.7 1053.3C1214.6 1042.8 1206.7 1032 1196.7 1027.1C1190.6 1024.2 1181.2 1023.5 1175 1025.5ZM23.0007 1153.5C12.5007 1157 3.00066 1167.6 0.800658 1178.3C-3.49934 1198.9 17.1007 1219.5 37.7007 1215.2C53.2007 1212 65.2007 1196.2 63.7007 1181.3C62.6007 1170.8 54.7007 1160 44.7007 1155.1C38.6007 1152.2 29.2007 1151.5 23.0007 1153.5ZM151.001 1153.5C140.501 1157 131.001 1167.6 128.801 1178.3C124.501 1198.9 145.101 1219.5 165.701 1215.2C181.201 1212 193.201 1196.2 191.701 1181.3C190.601 1170.8 182.701 1160 172.701 1155.1C166.601 1152.2 157.201 1151.5 151.001 1153.5ZM279.001 1153.5C268.501 1157 259.001 1167.6 256.801 1178.3C252.501 1198.9 273.101 1219.5 293.701 1215.2C309.201 1212 321.201 1196.2 319.701 1181.3C318.601 1170.8 310.701 1160 300.701 1155.1C294.601 1152.2 285.201 1151.5 279.001 1153.5ZM407.001 1153.5C396.501 1157 387.001 1167.6 384.801 1178.3C380.501 1198.9 401.101 1219.5 421.701 1215.2C437.201 1212 449.201 1196.2 447.701 1181.3C446.601 1170.8 438.701 1160 428.701 1155.1C422.601 1152.2 413.201 1151.5 407.001 1153.5ZM535.001 1153.5C524.501 1157 515.001 1167.6 512.801 1178.3C508.501 1198.9 529.101 1219.5 549.701 1215.2C565.201 1212 577.201 1196.2 575.701 1181.3C574.601 1170.8 566.701 1160 556.701 1155.1C550.601 1152.2 541.201 1151.5 535.001 1153.5ZM663.001 1153.5C652.501 1157 643.001 1167.6 640.801 1178.3C636.501 1198.9 657.101 1219.5 677.701 1215.2C693.201 1212 705.201 1196.2 703.701 1181.3C702.601 1170.8 694.701 1160 684.701 1155.1C678.601 1152.2 669.201 1151.5 663.001 1153.5ZM791.001 1153.5C780.501 1157 771.001 1167.6 768.801 1178.3C764.501 1198.9 785.101 1219.5 805.701 1215.2C821.201 1212 833.201 1196.2 831.701 1181.3C830.601 1170.8 822.701 1160 812.701 1155.1C806.601 1152.2 797.201 1151.5 791.001 1153.5ZM919.001 1153.5C908.501 1157 899.001 1167.6 896.801 1178.3C892.501 1198.9 913.101 1219.5 933.701 1215.2C949.201 1212 961.201 1196.2 959.701 1181.3C958.601 1170.8 950.701 1160 940.701 1155.1C934.601 1152.2 925.201 1151.5 919.001 1153.5ZM1047 1153.5C1036.5 1157 1027 1167.6 1024.8 1178.3C1020.5 1198.9 1041.1 1219.5 1061.7 1215.2C1077.2 1212 1089.2 1196.2 1087.7 1181.3C1086.6 1170.8 1078.7 1160 1068.7 1155.1C1062.6 1152.2 1053.2 1151.5 1047 1153.5ZM1175 1153.5C1164.5 1157 1155 1167.6 1152.8 1178.3C1148.5 1198.9 1169.1 1219.5 1189.7 1215.2C1205.2 1212 1217.2 1196.2 1215.7 1181.3C1214.6 1170.8 1206.7 1160 1196.7 1155.1C1190.6 1152.2 1181.2 1151.5 1175 1153.5Z" fill="#6415FF" fill-opacity="0.4"/>
</svg>
