<svg width="570" height="569" viewBox="0 0 570 569" fill="none" xmlns="http://www.w3.org/2000/svg">
<path d="M438.6 45.9999C484.1 75.1999 520.999 117.8 543.399 167C565.899 216.1 573.9 271.9 566.2 325.4C558.5 378.9 535.099 430.2 499.699 471.1C464.299 511.9 416.9 542.4 365 557.6C313.2 572.8 256.799 572.8 204.999 557.6C153.099 542.4 105.7 511.9 70.2995 471.1C34.8995 430.2 11.4995 378.9 3.79949 325.4C-3.90051 271.9 4.09951 216.1 26.5995 167C48.9995 117.8 85.8995 75.1999 131.399 45.9999C176.899 16.6999 230.9 0.899902 285 0.899902C339.1 0.899902 393.1 16.6999 438.6 45.9999Z" fill="#2D3748" fill-opacity="0.3"/>
</svg>
