<svg width="375" height="428" viewBox="0 0 375 428" fill="none" xmlns="http://www.w3.org/2000/svg">
<path d="M237.399 75.2999C259.899 98.4999 272.999 127.8 300.599 163.9C328.199 200.1 370.399 243 374.599 287.1C378.799 331.3 345.199 376.6 301.599 401.7C257.999 426.9 204.499 432 156.199 424.8C107.899 417.7 64.7991 398.3 41.4991 366.6C18.1991 334.8 14.6991 290.6 12.1991 253.1C9.5991 215.6 7.99911 184.8 3.99911 139.6C-0.000892878 94.3999 -6.50089 34.8999 17.5991 12.1999C41.6991 -10.5001 96.2991 3.79993 139.599 19.3999C182.899 34.9999 214.899 52.0999 237.399 75.2999Z" fill="#F687B3" fill-opacity="0.1"/>
</svg>
